Coordinates
version=1
nRows=13
nColumns=34
inDegrees=yes

Units are S.I. units (second, meters, Newtons, ...)
If the header above contains a line with 'inDegrees', this indicates whether rotational values are in degrees (yes) or radians (no).

endheader
time	pelvis_tilt	pelvis_list	pelvis_rotation	pelvis_tx	pelvis_ty	pelvis_tz	hip_flexion_r	hip_adduction_r	hip_rotation_r	knee_angle_r	ankle_angle_r	subtalar_angle_r	mtp_angle_r	hip_flexion_l	hip_adduction_l	hip_rotation_l	knee_angle_l	ankle_angle_l	subtalar_angle_l	mtp_angle_l	lumbar_extension	lumbar_bending	lumbar_rotation	arm_flex_r	arm_add_r	arm_rot_r	elbow_flex_r	pro_sup_r	arm_flex_l	arm_add_l	arm_rot_l	elbow_flex_l	pro_sup_l
      2.21666670	    -10.42057635	      1.96400589	     -5.01371251	     -0.05231871	      1.30445465	     -0.07413361	     11.15564233	     -1.53856272	      7.63928333	      4.53816673	      6.36284730	     -7.72963185	      0.00000000	     11.31378582	      1.58830610	      3.39473599	      6.03945230	      4.29782728	     -9.59168056	      0.00000000	      9.32089526	     -0.24264469	     -2.63100506	     28.22122808	     -3.38056911	     25.06821939	    144.87652732	     86.93118998	     -7.13885738	     -6.95447472	      1.73356255	     24.74063941	     56.22321175
      2.23333330	    -10.33074522	      2.01526005	     -4.92440044	     -0.05158340	      1.30092298	     -0.07409349	     10.86854163	     -1.62932309	      7.58143596	      4.10252190	      6.48280311	     -6.47264085	      0.00000000	     11.19559625	      1.66397898	      3.32334741	      5.98122713	      3.99523261	     -9.44653903	      0.00000000	      9.12226406	     -0.16705841	     -3.23066240	     28.59447508	     -3.24689290	     27.29200568	    145.59938355	     86.31689348	     -7.13515810	     -7.04834933	      2.90685018	     23.55014688	     55.14601773
      2.25000000	    -10.30740451	      2.02243043	     -4.90883627	     -0.05263820	      1.30145760	     -0.07359861	     10.88462402	     -1.62262856	      7.59050906	      4.09145236	      6.48268554	     -6.46762915	      0.00000000	     11.19676193	      1.66616478	      3.32370647	      5.97641694	      3.99467599	     -9.44520305	      0.00000000	      9.12761708	     -0.16673199	     -3.23240847	     28.59519529	     -3.24555260	     27.29206796	    145.60153172	     86.31586720	     -7.13699340	     -7.04860798	      2.90872332	     23.54981208	     55.14428083
      2.26666670	    -10.29819673	      2.02275359	     -4.91528067	     -0.05398499	      1.30234695	     -0.07355159	     10.85247160	     -1.62543819	      7.59493437	      4.10142571	      6.48269969	     -6.46484287	      0.00000000	     11.23991689	      1.67110961	      3.32418150	      5.95177823	      3.99512898	     -9.44292921	      0.00000000	      9.12966478	     -0.16598375	     -3.23548193	     28.59585522	     -3.24457307	     27.29319707	    145.60443902	     86.31494810	     -7.13747132	     -7.05232994	      2.91025798	     23.54933913	     55.14267356
      2.28333330	    -10.35114536	      2.09257818	     -4.92509130	     -0.05385364	      1.30704200	     -0.07448571	     10.86881107	     -1.70576050	      7.60489078	      4.11025161	      6.37930342	     -6.41221488	      0.00000000	     11.32305038	      1.73814803	      3.26190407	      5.84658567	      3.88271321	     -9.35567486	      0.00000000	      9.00499145	     -0.17709226	     -3.38388286	     28.58036051	     -3.25648766	     27.34687343	    145.66466932	     86.29405449	     -6.98668452	     -7.12577319	      2.95498521	     23.57330059	     55.10636941
      2.30000000	    -10.36333852	      2.08975479	     -4.93820675	     -0.05328444	      1.30401745	     -0.07398237	     10.82272004	     -1.69968225	      7.59406297	      4.13306717	      6.37347493	     -6.41433439	      0.00000000	     11.34984833	      1.74931594	      3.25673603	      5.83609319	      3.87768395	     -9.35197287	      0.00000000	      8.99668821	     -0.18146171	     -3.38543956	     28.58025622	     -3.25764579	     27.35026861	    145.66732931	     86.29317689	     -6.98504098	     -7.12460228	      2.95762631	     23.57351298	     55.10480714
      2.31666670	     -9.98578761	      2.07244607	     -4.87223496	     -0.05277842	      1.30236641	     -0.07386706	     10.37875558	     -1.74197653	      7.10338034	      4.12829966	      6.06138492	     -6.49211986	      0.00000000	     10.97861438	      1.73902996	      2.59526742	      5.85924563	      4.10497289	     -8.28969150	      0.00000000	      8.04644143	     -0.25944664	     -3.39056227	     28.75543538	     -3.58061079	     28.67547886	    146.81473966	     85.76250852	     -6.66433515	     -7.40278615	      4.20890533	     23.95199754	     54.13083112
      2.33333330	    -10.00166409	      2.07255020	     -4.87580932	     -0.05335566	      1.30053721	     -0.07395147	     10.36360775	     -1.74371199	      7.10122829	      4.13495982	      6.06059247	     -6.49275268	      0.00000000	     10.97106630	      1.73971833	      2.59419424	      5.86225689	      4.10459373	     -8.28967192	      0.00000000	      8.04755571	     -0.25939861	     -3.39214390	     28.75436000	     -3.58117096	     28.67559077	    146.81516166	     85.76230368	     -6.66304626	     -7.40299407	      4.20928289	     23.95242382	     54.13041244
      2.35000000	     -9.98392301	      2.08766869	     -4.67521905	     -0.05295467	      1.30574494	     -0.07386446	     10.27942473	     -1.82280291	      6.64808738	      4.11268646	      5.77898898	     -6.61691716	      0.00000000	     10.96542706	      1.76780505	      2.57372306	      5.92449533	      3.98363586	     -8.11704028	      0.00000000	      8.01294378	     -0.37259501	     -3.62847737	     28.18091285	     -3.82592838	     28.88215007	    147.15767225	     85.61454571	     -6.44142303	     -7.52540521	      4.53725456	     24.03396071	     53.80074313
      2.36666670	     -9.95722987	      2.09936190	     -4.65320430	     -0.05296637	      1.30086185	     -0.07339965	     10.28869802	     -1.83754024	      6.65030858	      4.15401097	      5.79006007	     -6.62559053	      0.00000000	     10.93650891	      1.77803615	      2.48773754	      5.98214077	      4.02945727	     -8.16957072	      0.00000000	      7.98988208	     -0.30466960	     -3.74249092	     28.06452488	     -3.88390914	     28.89427917	    147.18486084	     85.60285895	     -6.33119921	     -7.57192426	      4.56105381	     24.06746450	     53.77455064
      2.38333330	     -9.99745494	      2.11363136	     -4.65785596	     -0.05153280	      1.30435593	     -0.07338690	     10.25809667	     -1.84984140	      6.64617491	      4.17590875	      5.78773250	     -6.62788629	      0.00000000	     10.94243402	      1.75407964	      2.48496794	      5.98842389	      4.02859887	     -8.17122527	      0.00000000	      7.98362129	     -0.30529918	     -3.74893431	     28.05491365	     -3.88723222	     28.89598226	    147.18542564	     85.60234896	     -6.32369518	     -7.57130739	      4.56275711	     24.06972625	     53.77327662
      2.40000000	     -9.69589824	      2.01408385	     -4.35451661	     -0.05142424	      1.29799670	     -0.07346236	      9.86714542	     -1.80752995	      6.27078566	      4.16563909	      5.72259112	     -6.75160288	      0.00000000	     10.69470895	      1.70312303	      2.48921030	      6.24073106	      4.29544346	     -8.03005235	      0.00000000	      7.35743034	     -0.45320386	     -3.46123987	     26.83565013	     -4.61086948	     29.02447491	    148.22969536	     85.32158789	     -5.67830658	     -7.74615125	      5.50098007	     24.33709105	     53.08915661
      2.41666670	     -9.66779854	      1.92357488	     -4.25532432	     -0.05211367	      1.29005606	     -0.07354032	      9.87049887	     -1.71974808	      6.20899472	      4.29998497	      6.16568435	     -7.03934193	      0.00000000	     10.71461491	      1.60606466	      2.42991328	      6.39843110	      4.55583186	     -8.13486263	      0.00000000	      7.26155045	     -0.39113988	     -3.60875743	     26.49961094	     -4.76062889	     28.94085614	    148.15984348	     85.27202003	     -5.40864704	     -7.81974667	      5.65052245	     24.43330897	     52.98822841
